<svg id="Object" xmlns="http://www.w3.org/2000/svg" viewBox="0 0 764.41 208"><defs><style>.cls-1{fill:#eb3880;}.cls-2{fill:#f0ce26;}.cls-3{fill:#f37021;}.cls-4{fill:#7cb342;}.cls-5{fill:#62b9d7;}.cls-6{fill:#fff;}</style></defs><title>офер</title><polygon class="cls-1" points="242.53 6.33 278.17 9.24 276.72 90.71 246.17 91.44 242.53 6.33"/><polygon class="cls-2" points="283.02 8.51 278.66 92.41 312.6 91.44 305.33 8.03 283.02 8.51"/><polygon class="cls-3" points="344.36 9.48 348.54 93.86 373.62 90.95 373.02 6.57 344.36 9.48"/><polygon class="cls-4" points="378.66 8.51 379.89 92.89 407.59 89.98 408.82 8.03 378.66 8.51"/><polygon class="cls-5" points="314.51 7.54 316.45 87.07 340.21 92.41 341.66 6.57 314.51 7.54"/><polygon class="cls-1" points="515.91 99.15 559.55 102.71 557.77 202.45 513.58 203.5 515.91 99.15"/><polygon class="cls-2" points="565.48 101.82 560.14 204.53 601.7 203.34 592.79 101.23 565.48 101.82"/><polygon class="cls-5" points="598.26 100.84 606.41 198 635.5 204.53 637.28 99.44 598.26 100.84"/><polygon class="cls-4" points="453.33 9.48 453.56 88 483.26 91.44 480.29 8.6 453.33 9.48"/><polygon class="cls-3" points="484.09 9.84 488.21 91.02 517.96 92.89 518.41 9.84 484.09 9.84"/><polygon class="cls-1" points="414.01 8.03 417.12 88.78 448.78 88.78 446.18 9.55 414.01 8.03"/><polygon class="cls-5" points="3.91 99.36 40.59 101.77 40.59 198.59 6.31 201 3.91 99.36"/><polygon class="cls-4" points="43.96 98.04 44.15 196.82 77.95 201.12 74.64 96.91 43.96 98.04"/><polygon class="cls-3" points="77.88 99.06 81.94 196.94 111.25 199.19 111.7 99.06 77.88 99.06"/><polygon class="cls-2" points="139.2 99.06 138.3 199.64 168.51 199.64 163.1 98.16 139.2 99.06"/><polygon class="cls-1" points="168.51 99.51 171.22 198.74 203.7 201 206.4 103.12 168.51 99.51"/><polygon class="cls-5" points="208.21 102.22 210.59 201 242.48 201.45 237.72 103.12 208.21 102.22"/><polygon class="cls-4" points="242.48 103.12 245.19 199.19 272.7 199.19 270.45 104.93 242.48 103.12"/><polygon class="cls-3" points="718.7 106.92 761.2 104.33 761.2 201.15 726.92 203.55 718.7 106.92"/><polygon class="cls-1" points="683.21 103.04 682.11 203.62 718.7 203.62 712.15 102.14 683.21 103.04"/><polygon class="cls-4" points="643.74 104.7 641.25 200.77 673.96 200.77 678.23 106.93 643.74 104.7"/><polygon class="cls-3" points="273.15 104.93 274.62 198.29 311.15 199.19 314.44 103.57 273.15 104.93"/><polygon class="cls-1" points="361.05 99.06 339.32 105.38 335.46 200.54 376.5 200.09 361.05 99.06"/><polygon class="cls-5" points="395.83 101.77 394.93 203.25 429.21 201.45 437.33 99.06 395.83 101.77"/><polygon class="cls-4" points="443.64 98.61 432.37 200.54 477.92 202.8 470.25 99.51 443.64 98.61"/><polygon class="cls-3" points="472.96 98.61 482.88 201.45 508.59 202.35 511.3 98.16 472.96 98.61"/><path class="cls-6" d="M270.88,29.95a49.57,49.57,0,0,1,1.29,10.12q0.11,5-.11,10.16t-0.27,10.37q0,5.16,0,10.37a1.91,1.91,0,0,1-.72,1.63,2.65,2.65,0,0,1-3.21,0,1.91,1.91,0,0,1-.72-1.63q0-5.21.07-10.37t0.29-10.37q0.18-4.39.14-8.76a50.74,50.74,0,0,0-.86-8.76q-2.81-.18-5.57-0.27t-5.57,0q0.14,5.16-.07,10.28T255.4,53q0,2.85.07,5.64t0.16,5.64q0,1,0,1.92c0,0.59,0,1.17,0,1.74s-0.08,1.15-.14,1.74-0.14,1.23-.23,1.92a1.41,1.41,0,0,1-.86,1.24,2.61,2.61,0,0,1-1.63.16,2.79,2.79,0,0,1-1.49-.86,2.08,2.08,0,0,1-.5-1.77q0.18-1.27.25-2.29a17.5,17.5,0,0,0,0-2q0-1-.11-1.9t-0.07-2.08q-0.09-2.62-.09-5.25t0-5.25q0-5.34.16-10.66t-0.07-10.66a1.8,1.8,0,0,1,.7-1.58,3.13,3.13,0,0,1,1.65-.68,60.53,60.53,0,0,1,7.74-.14q3.85,0.18,7.74.41a2.86,2.86,0,0,1,1.4.45A1.84,1.84,0,0,1,270.88,29.95Z"/><path class="cls-6" d="M303.24,32a5.57,5.57,0,0,1,.91,1.93,15.54,15.54,0,0,1,.48,2.57,22.57,22.57,0,0,1,.1,2.95q0,1.56-.21,3.05A8.34,8.34,0,0,1,303.07,46,18.92,18.92,0,0,1,300,49.47a18.48,18.48,0,0,1-3.92,2.74,8.68,8.68,0,0,1-4,1.1l-0.41,0-0.42-.06,0,2q0,1.66,0,3.34t0.12,3.3q0,0.83,0,1.68t0.06,1.68q0,1,0,1.56t0.06,1.06q0,0.46,0,1T291.49,70a1.85,1.85,0,0,1-.35.91,1,1,0,0,1-.84.33,3.45,3.45,0,0,1-.66-0.08c-0.27-.05-0.55-0.12-0.82-0.21a3.42,3.42,0,0,1-.76-0.33,1.54,1.54,0,0,1-.51-0.46,1.46,1.46,0,0,1-.29-1q0-.54.12-1.12,0-.79.08-1.12a3,3,0,0,0,0-.58q0-.25-0.06-0.6t-0.08-1.18q0-.37-0.06-0.73t0-.68q-0.12-2.32-.15-4.57t0-4.36V53.68q0-2.74,0-5.52T287,42.6q0-.83-0.08-1.62t-0.08-1.62l-0.12-2.24a1.33,1.33,0,0,1,0-.33V36.42q0-.46,0-1.2t-0.08-1.54q0-.79,0-1.45a7.52,7.52,0,0,1,0-1,1.4,1.4,0,0,1,1.4-1.54h1.23q1.07,0,2.6,0t3.36,0.17q1.82,0.12,3.47.39a21.78,21.78,0,0,1,2.91.66A3.3,3.3,0,0,1,303.24,32Zm-2.45,9.59a14.21,14.21,0,0,0,.27-1.62,11.56,11.56,0,0,0,.06-1.83,8.84,8.84,0,0,0-.25-1.74,3.71,3.71,0,0,0-.62-1.37,2.72,2.72,0,0,0-1.43-.48q-1.18-.19-2.64-0.29t-2.84-.15l-2.1,0h-0.58q0.08,0.58.15,1.31l0.12,1.47q0.06,0.75.1,1.49c0,0.5,0,.93,0,1.29s0,0.66,0,1,0,0.65,0,1q0.08,1.58.1,3.32t0.06,3.82a2.42,2.42,0,0,0,.39.12,1.8,1.8,0,0,0,.39,0,4.35,4.35,0,0,0,1.76-.42,10.15,10.15,0,0,0,1.85-1.08,19.37,19.37,0,0,0,1.78-1.47A21.49,21.49,0,0,0,299,44.32a12.53,12.53,0,0,0,1.16-1.54A4.76,4.76,0,0,0,300.79,41.61Z"/><path class="cls-6" d="M339.08,64.15a1.44,1.44,0,0,1-.27,1.51,2.77,2.77,0,0,1-1.39.81,2.92,2.92,0,0,1-1.68-.08,1.75,1.75,0,0,1-1.14-1.2q-0.37-1.16-.71-2.14l-0.64-1.91q-0.31-.93-0.6-1.93t-0.54-2.16q-2.16.21-4.32,0.31a41.57,41.57,0,0,0-4.32.44h-0.17a12.53,12.53,0,0,1-.56,1.64q-0.31.73-.56,1.41a9.63,9.63,0,0,0-.39,1.41,8.38,8.38,0,0,0-.15,1.64,2.07,2.07,0,0,1-.71,1.6,3.53,3.53,0,0,1-1.58.85,2.66,2.66,0,0,1-1.62-.08A1.19,1.19,0,0,1,317,65a11.67,11.67,0,0,1,.23-2.3q0.23-1.14.56-2.26t0.68-2.22q0.35-1.1.6-2.26,0.54-2.61,1.1-5.21t1.18-5.21q0.58-2.49,1.29-4.75t1.31-4.48q0.6-2.22,1-4.5a29.88,29.88,0,0,0,.46-4.86,1.56,1.56,0,0,1,.64-1.29,2.93,2.93,0,0,1,1.43-.6,2.82,2.82,0,0,1,1.54.23,1.64,1.64,0,0,1,1,1.16q1.37,5,2.37,9.67t2,9.21q1,4.57,2.05,9.19T339.08,64.15ZM324.22,53.82q1.74-.21,3.51-0.33l3.55-.25q-0.83-4-1.56-7.93t-1.51-8l-1.08,4.13q-0.54,2.05-1,4.13Q325.09,49.67,324.22,53.82Z"/><path class="cls-6" d="M369.45,45.24A42.41,42.41,0,0,1,370,51q0.06,2.91-.15,5.81-0.08,1-.1,2.12t-0.12,2.22a19.38,19.38,0,0,1-.33,2.18,8.24,8.24,0,0,1-.68,2,8.47,8.47,0,0,1-2.64,3.22,8.7,8.7,0,0,1-3.55,1.54,9.83,9.83,0,0,1-3.86-.06A9.58,9.58,0,0,1,355,68.5a8.62,8.62,0,0,1-2.57-2.84,7.77,7.77,0,0,1-1-4.07,1.8,1.8,0,0,1,.67-1.51,2.43,2.43,0,0,1,1.45-.54A2.16,2.16,0,0,1,355,60a1.73,1.73,0,0,1,.63,1.47,5.2,5.2,0,0,0,.37,2A4.17,4.17,0,0,0,357.06,65a4.73,4.73,0,0,0,1.62,1,5,5,0,0,0,2.05.25,5.66,5.66,0,0,0,2.2-.6,4,4,0,0,0,1.41-1.27,5.48,5.48,0,0,0,.79-1.81,16.46,16.46,0,0,0,.37-2.22q0.12-1.66.29-3.42T366,53.33q0.06-1.78,0-3.53a19,19,0,0,0-.46-3.36,4.67,4.67,0,0,0-1-2.05,3.47,3.47,0,0,0-1.49-1,7.54,7.54,0,0,0-2-.35q-1.08-.06-2.28-0.19a2.05,2.05,0,0,1-1.47-.71,2.14,2.14,0,0,1-.54-1.33,2,2,0,0,1,.46-1.33,2.08,2.08,0,0,1,1.47-.75,10.1,10.1,0,0,0,2.14-.48A6.66,6.66,0,0,0,363,37.23a2.15,2.15,0,0,0,.91-1.58q0.06-.91-1.39-2.12a3.41,3.41,0,0,0-1.51-.71,9.24,9.24,0,0,0-1.76-.17,16.75,16.75,0,0,0-1.85.1,15.64,15.64,0,0,1-1.72.1,1.76,1.76,0,0,1-1.51-.58,2.11,2.11,0,0,1-.52-1.39,2.41,2.41,0,0,1,.48-1.43,1.79,1.79,0,0,1,1.47-.71q2,0,3.91,0a10.94,10.94,0,0,1,3.45.6,7.08,7.08,0,0,1,2.75,1.78,8.33,8.33,0,0,1,1.84,3.51,5.24,5.24,0,0,1,0,3.26A5.59,5.59,0,0,1,366,40.26a6.66,6.66,0,0,1,2.2,1.83A6.87,6.87,0,0,1,369.45,45.24Z"/><path class="cls-6" d="M405.35,62.2a1.86,1.86,0,0,1,.58,1.33,3.41,3.41,0,0,1-.12.85,3,3,0,0,1-.39.89,3.24,3.24,0,0,1-.64.73,1.52,1.52,0,0,1-.87.35l-1.08,0q-0.87,0-2.1.06l-2.68,0-2.82,0-2.53,0h-1.83q-2.2,0-4.11-.12T383,66.06a1.9,1.9,0,0,1-1.14-.62,1.48,1.48,0,0,1-.35-1.2,2.59,2.59,0,0,1,.75-1.54,1.86,1.86,0,0,1,1.74-.54l0.33,0.06,0.33,0.06q0.12-1.49.33-3t0.42-2.93q0.21-1.33.37-2.68T386.1,51l0.17-1.93,0.17-1.93q0.08-1.45.21-3t0.33-3a25.86,25.86,0,0,1,2.57-9.07A18.34,18.34,0,0,1,395,25.81a2,2,0,0,1,.52-0.25q0.35-.12.75-0.23l0.75-.19a2.55,2.55,0,0,1,.52-0.08,1.57,1.57,0,0,1,1.54,1,8.63,8.63,0,0,1,.85,2.95q0.14,1.49.23,3v0.5a3.75,3.75,0,0,0,0,.54v0.66q0.12,2.32.27,4.65T400.83,43q0.29,2.53.44,5t0.27,5l0.25,4.46q0.12,2.22.33,4.46l1.87-.17A1.68,1.68,0,0,1,405.35,62.2Zm-16.68.37q2,0.08,4.32,0t5.19-.29q-0.21-2-.31-4.07t-0.19-4q-0.08-2.12-.21-4.25t-0.33-4.3q-0.25-2.24-.48-4.81t-0.39-5.23v-2q0-.87,0-1.83A15.3,15.3,0,0,0,396.1,30a12.27,12.27,0,0,0-2.57,3.07,17.47,17.47,0,0,0-1.6,3.63,25.13,25.13,0,0,0-.89,4q-0.29,2.05-.46,4.13T390.16,49q-0.25,2.12-.54,4.23-0.29,2.28-.56,4.61T388.67,62.58Z"/><path class="cls-6" d="M442.38,27.61q0.33,5.19.41,9.71t0,8.9q0,4.38-.15,8.92t-0.1,9.73a1.85,1.85,0,0,1-.66,1.56,2.29,2.29,0,0,1-2.91,0,1.85,1.85,0,0,1-.66-1.56q0-2.28,0-3.78t0-2.84q0-1.35.06-2.84t0.08-3.74q-3.53,0-7,.17t-6.89.62q0,2,.12,3.42T425,58.76q0.1,1.39.23,2.86T425.57,65a1.66,1.66,0,0,1-.54,1.54,2.23,2.23,0,0,1-1.43.5,2.51,2.51,0,0,1-1.51-.52A2,2,0,0,1,421.3,65q-0.46-5-.68-9.61t-0.33-9.07q-0.1-4.48-.1-9.07V27.61a1.8,1.8,0,0,1,.66-1.54,2.37,2.37,0,0,1,2.91,0,1.8,1.8,0,0,1,.66,1.54q0,5.19,0,10.31t0.15,10.31q3.53-.46,7-0.62t7-.21q0-4.77,0-9.9t-0.41-9.9a1.64,1.64,0,0,1,.56-1.54,2.28,2.28,0,0,1,1.43-.5,2.55,2.55,0,0,1,1.49.5A2,2,0,0,1,442.38,27.61Z"/><path class="cls-6" d="M478.57,65.56a1.28,1.28,0,0,1-.37,1,2.24,2.24,0,0,1-1.49.46,2.89,2.89,0,0,1-1.49-.42,2,2,0,0,1-.44-0.37,1.38,1.38,0,0,1-.31-0.71l-0.17-1.14q-0.08-.56-0.17-1.14l0-.25-0.5-3.65q-0.25-1.83-.33-3.69,0-1.08-.06-2.12t-0.06-2.07q0-1.33,0-2.7T473,46.06q-0.08-1.41-.25-2.8t-0.29-2.72l0,0q-0.08-1-.21-2.12l-0.25-2.24-0.25-2.86-0.37,2.82q-0.21,1.45-.48,2.88t-0.56,2.84q-0.17.75-.31,1.56T469.65,45l0,0.17q-1,5.19-2.14,10.4a58.59,58.59,0,0,1-3.26,10.23,1.71,1.71,0,0,1-.85.83A2.9,2.9,0,0,1,462,67a1.67,1.67,0,0,1-1.58-.79,15,15,0,0,1-1.24-2.88,18.43,18.43,0,0,1-.66-3q-0.21-1.54-.29-3.07t-0.12-3.07v0q0-1.87-.12-3.61t-0.1-3.69q0-1.87.06-3.86t0-4q0-2-.12-4t-0.41-3.86a19.68,19.68,0,0,0-.91-3.65,1,1,0,0,1,.29-1.25,1.77,1.77,0,0,1,.77-0.5,3.08,3.08,0,0,1,1-.17,2.35,2.35,0,0,1,1.2.29,1.41,1.41,0,0,1,.66.83,23.36,23.36,0,0,1,1,3.69,35.88,35.88,0,0,1,.46,3.9q0.12,2,.12,4t0,4.07v0q0,1.54-.06,3T462,48.26q0.08,2.16.17,4.27t0.21,4.27v0l0.21,1.62L463,56.89q0.83-3.07,1.43-6.16t1.18-6.12v0L466,42.74l0.81-4.57q0.44-2.45.81-5,0.12-.83.27-1.74a10.49,10.49,0,0,1,.46-1.8,9,9,0,0,1,.85-1.76,7.45,7.45,0,0,1,1.37-1.62,1.88,1.88,0,0,1,1.33-.5,2.59,2.59,0,0,1,1.27.33,2,2,0,0,1,.85.83A13.5,13.5,0,0,1,475.42,31q0.37,2.14.54,4.25,0.12,1.16.25,2.3t0.25,2.22q0.16,1.33.31,2.7T477,45.23q0.08,1.33.12,2.68t0.08,2.68q0,1.25,0,2.53t0.12,2.57q0.12,2,.37,3.86l0.5,3.82,0.17,1.08Q478.49,65,478.57,65.56Z"/><path class="cls-6" d="M513.28,64.07a1.64,1.64,0,0,1,.17,1.58,2.3,2.3,0,0,1-1,1.12A2.26,2.26,0,0,1,511,67a1.82,1.82,0,0,1-1.29-1,19.32,19.32,0,0,1-1.39-3q-0.56-1.53-1.1-3.09t-1.12-3.11a23.79,23.79,0,0,0-1.37-3q-1.2-2.16-2.43-4.3a39.68,39.68,0,0,1-2.18-4.42l-1,1.18-1,1.18a1.49,1.49,0,0,1-.37.33A35.49,35.49,0,0,1,497.8,52q-0.08,2.12-.15,4.23t0.06,4.19a20.12,20.12,0,0,0,.66,4.07,1.71,1.71,0,0,1-.25,1.58,2.26,2.26,0,0,1-1.24.81,2.49,2.49,0,0,1-1.51-.1,1.65,1.65,0,0,1-1-1.2,23,23,0,0,1-.77-4.69q-0.15-2.41-.1-4.83t0.1-4.83a36.49,36.49,0,0,0-.19-4.77q-0.25-2.41-.52-4.83t-0.42-4.86q-0.15-2.43-.06-4.83a32.67,32.67,0,0,1,.54-4.86,1.52,1.52,0,0,1,.89-1.22,2.31,2.31,0,0,1,1.49-.12,2.43,2.43,0,0,1,1.31.83,1.87,1.87,0,0,1,.37,1.6,29.58,29.58,0,0,0-.48,7.06q0.19,3.53.6,7.06,3.19-3.9,6.2-7.91t6.12-8a2,2,0,0,1,1.45-.81,2.77,2.77,0,0,1,1.56.31,2,2,0,0,1,1,1.06,1.45,1.45,0,0,1-.35,1.47q-2.53,3.2-5,6.41t-4.94,6.45a18.64,18.64,0,0,0,1.08,3q0.66,1.45,1.43,2.86T507.24,50q0.81,1.41,1.56,2.82a23.86,23.86,0,0,1,1.22,2.8q0.52,1.43,1,2.86t1,2.84A18.74,18.74,0,0,0,513.28,64.07Z"/><path class="cls-6" d="M33.88,160a1.86,1.86,0,0,1,.58,1.33,3.41,3.41,0,0,1-.12.85,3,3,0,0,1-.39.89,3.24,3.24,0,0,1-.64.73,1.52,1.52,0,0,1-.87.35l-1.08,0q-0.87,0-2.1.06l-2.68,0-2.82,0-2.53,0H19.39q-2.2,0-4.11-.12t-3.74-.37a1.9,1.9,0,0,1-1.14-.62,1.48,1.48,0,0,1-.35-1.2,2.59,2.59,0,0,1,.75-1.54,1.86,1.86,0,0,1,1.74-.54L12.88,160l0.33,0.06q0.12-1.49.33-3T14,154.2q0.21-1.33.37-2.68t0.29-2.68l0.17-1.93L15,145q0.08-1.45.21-3t0.33-3a25.86,25.86,0,0,1,2.57-9.07,18.34,18.34,0,0,1,5.44-6.29,2,2,0,0,1,.52-0.25q0.35-.12.75-0.23l0.75-.19a2.55,2.55,0,0,1,.52-0.08,1.57,1.57,0,0,1,1.54,1,8.63,8.63,0,0,1,.85,2.95q0.14,1.49.23,3v0.5a3.75,3.75,0,0,0,0,.54v0.66q0.12,2.32.27,4.65t0.39,4.65q0.29,2.53.44,5t0.27,5l0.25,4.46q0.12,2.22.33,4.46l1.87-.17A1.68,1.68,0,0,1,33.88,160Zm-16.68.37q2,0.08,4.32,0t5.19-.29q-0.21-2-.31-4.07t-0.19-4q-0.08-2.12-.21-4.25t-0.33-4.3q-0.25-2.24-.48-4.81t-0.39-5.23v-2q0-.87,0-1.83a15.3,15.3,0,0,0-.15-1.83A12.27,12.27,0,0,0,22,130.88a17.47,17.47,0,0,0-1.6,3.63,25.13,25.13,0,0,0-.89,4q-0.29,2.05-.46,4.13t-0.41,4.23q-0.25,2.12-.54,4.23-0.29,2.28-.56,4.61T17.19,160.38Z"/><path class="cls-6" d="M71.15,162.41a1.53,1.53,0,0,1-.15,1.54,2.27,2.27,0,0,1-1.22.83,2.45,2.45,0,0,1-1.54-.08,1.87,1.87,0,0,1-1.12-1.2,45.36,45.36,0,0,1-1.41-4.9q-0.58-2.53-1.1-5.1t-1.06-5.1q-0.54-2.53-1.24-4.94-0.71-2.24-1.41-4.44t-1.41-4.44q-1.33,6.89-2.72,14a130.12,130.12,0,0,0-2,14.15,1.84,1.84,0,0,1-.76,1.43,2.49,2.49,0,0,1-1.46.48,2.22,2.22,0,0,1-1.4-.48,1.52,1.52,0,0,1-.53-1.43q0.37-4.65,1.15-9.34t1.68-9.4q0.9-4.71,1.84-9.4t1.55-9.3a2.17,2.17,0,0,1,.68-1.27,2.46,2.46,0,0,1,1.25-.64,2,2,0,0,1,1.31.21,1.85,1.85,0,0,1,.87,1.2q1.2,4.77,2.78,9.38t2.9,9.38q0.62,2.24,1.12,4.65l1,4.81q0.5,2.41,1.06,4.77T71.15,162.41Z"/><path class="cls-6" d="M105.24,126.34q0,1.18.06,3.15t0.06,4.59q0,2.61,0,5.56t0.08,6.06q0.06,3.11.12,6.12t0.18,5.75q0.12,2.74.28,4.9a1.47,1.47,0,0,1-.53,1.41,2.29,2.29,0,0,1-1.4.46,2.66,2.66,0,0,1-1.48-.46,1.66,1.66,0,0,1-.74-1.41q-0.25-3.44-.41-7.35t-0.29-7.35a10.47,10.47,0,0,1-1.85.08,10.23,10.23,0,0,1-1.81-.25,37.72,37.72,0,0,1-1,3.86q-0.6,2-1.31,3.9t-1.43,3.88q-0.73,1.93-1.35,3.76a1.76,1.76,0,0,1-1.08,1.2,2.45,2.45,0,0,1-1.54.08,2.42,2.42,0,0,1-1.24-.81,1.45,1.45,0,0,1-.17-1.51q0.62-1.87,1.39-3.84t1.49-4q0.73-2,1.35-4a26.86,26.86,0,0,0,.91-4,14.48,14.48,0,0,1-5.5-5.23,13.2,13.2,0,0,1-1.45-3.38,10.11,10.11,0,0,1-.31-3.59A6.2,6.2,0,0,1,88,130.59a19.54,19.54,0,0,1,3.55-3.2A30,30,0,0,1,96,124.76a21.92,21.92,0,0,1,4.44-1.62,7.48,7.48,0,0,1,3.4-.15,1.62,1.62,0,0,1,1.35,1.74v0.33A9.28,9.28,0,0,1,105.24,126.34ZM100.87,144a0.58,0.58,0,0,1,.25,0q-0.08-4.07-.12-8.47t0-8.47a11.18,11.18,0,0,0-3.53.52,12.1,12.1,0,0,0-3.35,1.6,10,10,0,0,0-2.52,2.47,5.62,5.62,0,0,0-1.05,3.18,7.24,7.24,0,0,0,.41,2.37,10.13,10.13,0,0,0,1.16,2.32,11.84,11.84,0,0,0,1.76,2.07A9.79,9.79,0,0,0,96,143.08q0.54,0.21,1.22.42a12.53,12.53,0,0,0,1.34.33,10.75,10.75,0,0,0,1.26.17A3.84,3.84,0,0,0,100.87,144Z"/><path class="cls-6" d="M163.6,160.4a1.86,1.86,0,0,1,.58,1.33,3.41,3.41,0,0,1-.12.85,3,3,0,0,1-.39.89,3.24,3.24,0,0,1-.64.73,1.52,1.52,0,0,1-.87.35l-1.08,0q-0.87,0-2.1.06l-2.68,0-2.82,0-2.53,0h-1.83q-2.2,0-4.11-.12t-3.74-.37a1.9,1.9,0,0,1-1.14-.62,1.48,1.48,0,0,1-.35-1.2,2.59,2.59,0,0,1,.75-1.54,1.86,1.86,0,0,1,1.74-.54l0.33,0.06,0.33,0.06q0.12-1.49.33-3t0.42-2.93q0.21-1.33.37-2.68t0.29-2.68l0.17-1.93,0.17-1.93q0.08-1.45.21-3t0.33-3a25.86,25.86,0,0,1,2.57-9.07,18.34,18.34,0,0,1,5.44-6.29,2,2,0,0,1,.52-0.25q0.35-.12.75-0.23l0.75-.19a2.55,2.55,0,0,1,.52-0.08,1.57,1.57,0,0,1,1.54,1,8.63,8.63,0,0,1,.85,2.95q0.14,1.49.23,3v0.5a3.75,3.75,0,0,0,0,.54v0.66q0.12,2.32.27,4.65t0.39,4.65q0.29,2.53.44,5t0.27,5l0.25,4.46q0.12,2.22.33,4.46l1.87-.17A1.68,1.68,0,0,1,163.6,160.4Zm-16.68.37q2,0.08,4.32,0t5.19-.29q-0.21-2-.31-4.07t-0.19-4q-0.08-2.12-.21-4.25t-0.33-4.3q-0.25-2.24-.48-4.81t-0.39-5.23v-2q0-.87,0-1.83a15.3,15.3,0,0,0-.15-1.83,12.27,12.27,0,0,0-2.57,3.07,17.47,17.47,0,0,0-1.6,3.63,25.13,25.13,0,0,0-.89,4q-0.29,2.05-.46,4.13t-0.41,4.23q-0.25,2.12-.54,4.23-0.29,2.28-.56,4.61T146.92,160.78Z"/><path class="cls-6" d="M195.74,162.57a1.83,1.83,0,0,1-.66,2.2,5.61,5.61,0,0,1-1.74,1,11.21,11.21,0,0,1-2.12.52,17.6,17.6,0,0,1-2.28.19l-2.16,0a5.1,5.1,0,0,1-.64,0h-1.08a3,3,0,0,0-.48,0l-0.87,0-1,0q-0.79,0-1.68-.08a6.87,6.87,0,0,1-1.7-.37,4.32,4.32,0,0,1-1.45-.87,3,3,0,0,1-.89-1.54,13.76,13.76,0,0,1-.5-4.25q0.08-2.18.29-4.34,0.08-1,.17-2t0.08-1.93q0-1.12,0-2.24t0-2.24q0.08-4.32.08-8.69t-0.33-8.78a3,3,0,0,0-.06-0.46,5.78,5.78,0,0,1-.08-0.81,5.71,5.71,0,0,1,0-1,2.67,2.67,0,0,1,.31-1,1.61,1.61,0,0,1,1.1-.68,8.63,8.63,0,0,1,1.74-.21q0.93,0,1.83,0t1.39,0.06l1.78,0,2.72-.06,2.78,0q1.35,0,2,0a2.18,2.18,0,0,1,1.68.83,2.44,2.44,0,0,1,.52,1.62,2.56,2.56,0,0,1-.58,1.47,1.8,1.8,0,0,1-1.66.6,19.7,19.7,0,0,0-2.7,0l-2.7.19-2.1.17q-1.06.08-2.14,0.08l-0.64,0-0.64,0q0.29,3.69.29,7.14t-0.08,6.27a15.41,15.41,0,0,1,2.18-.27q1.14-.06,2.51-0.06l1.56,0,1.56,0,1.29,0.06,1.29,0a2,2,0,0,1,1.64.73,2.56,2.56,0,0,1,.56,1.6,2.48,2.48,0,0,1-.54,1.54,1.91,1.91,0,0,1-1.62.71l-1.39,0-1.39-.06-1.54-.06-1.54,0q-1.41,0-2.55.1a14.1,14.1,0,0,0-2.14.35l-0.08,2.37q-0.08,2.24-.17,4.5t-0.12,4.5a1.48,1.48,0,0,1,0,.25,1.49,1.49,0,0,0,0,.25v0.93a5.18,5.18,0,0,0,.08.93,16.57,16.57,0,0,0,2.2.12h0.73a6.53,6.53,0,0,0,.73,0q1.58,0,2.78-.1t2.28-.19q0.46-.08.85-0.12t0.81-.12a1.29,1.29,0,0,0,.46-0.17,1,1,0,0,1,.37-0.12h0.12a2.14,2.14,0,0,1,.87-0.17,2.36,2.36,0,0,1,1.39.46A2.63,2.63,0,0,1,195.74,162.57Z"/><path class="cls-6" d="M236.4,127.35a1.88,1.88,0,0,1-1.16,2.2,4.59,4.59,0,0,1-1.74.29H233a63.88,63.88,0,0,0-1.1-.08,11.13,11.13,0,0,0-2.24.15,9.32,9.32,0,0,1-2.24.1,12.76,12.76,0,0,1,.31,1.58q0.1,0.79.19,1.54a55.36,55.36,0,0,1,.31,6.23q0,3.11-.1,5.89,0,0.83,0,2.05t0.14,2.72q0.12,1.78.31,3.82t0.27,4q0.08,2,0,3.86a13.15,13.15,0,0,1-.48,3.26,3.05,3.05,0,0,1-.58,1.18,1.4,1.4,0,0,1-1.12.44h-1.16a1.07,1.07,0,0,1-.91-0.46,3.72,3.72,0,0,1-.19-1q-0.1-.87-0.19-2.2T224.07,160q-0.08-1.6-.14-3.2t-0.1-3q0-1.43,0-2.43a19.11,19.11,0,0,0-.12-2.3,9.73,9.73,0,0,1-.08-1.72q0.12-2.95.19-5.62t-0.06-5.29l0-.17q0-1.08-.12-2.18a19.16,19.16,0,0,0-.29-2.18l0-.37c-0.06-.22-0.1-0.44-0.15-0.64a2,2,0,0,0-.23-0.6,1.12,1.12,0,0,0-.21-0.29v0a0.53,0.53,0,0,1-.33-0.21l-1.16-.06-1.33,0a19.31,19.31,0,0,0-2.7.17,9.5,9.5,0,0,0-2.12.54,1.87,1.87,0,0,1-1.72-.17,2.29,2.29,0,0,1-1-1.58,2.85,2.85,0,0,1,.19-1.54,2.08,2.08,0,0,1,1.27-1.16,17.15,17.15,0,0,1,5.69-.79q0.87,0,1.74,0a11.65,11.65,0,0,1,1.7,0l1,0,1,0.06q1.74,0,3.36-.06a22.94,22.94,0,0,1,2.9,0h0.5l0.81,0.06,0.81,0h0.08l0.35,0,0.23,0,0.12,0a0.46,0.46,0,0,1,.29.17,2.09,2.09,0,0,1,1.39.71A3,3,0,0,1,236.4,127.35Z"/><path class="cls-6" d="M267.37,162.57a1.83,1.83,0,0,1-.66,2.2,5.61,5.61,0,0,1-1.74,1,11.21,11.21,0,0,1-2.12.52,17.6,17.6,0,0,1-2.28.19l-2.16,0a5.1,5.1,0,0,1-.64,0h-1.08a3,3,0,0,0-.48,0l-0.87,0-1,0q-0.79,0-1.68-.08a6.87,6.87,0,0,1-1.7-.37,4.32,4.32,0,0,1-1.45-.87,3,3,0,0,1-.89-1.54,13.76,13.76,0,0,1-.5-4.25q0.08-2.18.29-4.34,0.08-1,.17-2t0.08-1.93q0-1.12,0-2.24t0-2.24q0.08-4.32.08-8.69t-0.33-8.78a3,3,0,0,0-.06-0.46,5.78,5.78,0,0,1-.08-0.81,5.71,5.71,0,0,1,0-1,2.67,2.67,0,0,1,.31-1,1.61,1.61,0,0,1,1.1-.68,8.63,8.63,0,0,1,1.74-.21q0.93,0,1.83,0t1.39,0.06l1.78,0,2.72-.06,2.78,0q1.35,0,2,0a2.18,2.18,0,0,1,1.68.83,2.44,2.44,0,0,1,.52,1.62,2.56,2.56,0,0,1-.58,1.47,1.8,1.8,0,0,1-1.66.6,19.7,19.7,0,0,0-2.7,0l-2.7.19-2.1.17q-1.06.08-2.14,0.08l-0.64,0-0.64,0q0.29,3.69.29,7.14t-0.08,6.27a15.41,15.41,0,0,1,2.18-.27q1.14-.06,2.51-0.06l1.56,0,1.56,0,1.29,0.06,1.29,0a2,2,0,0,1,1.64.73,2.56,2.56,0,0,1,.56,1.6,2.48,2.48,0,0,1-.54,1.54,1.91,1.91,0,0,1-1.62.71l-1.39,0-1.39-.06-1.54-.06-1.54,0q-1.41,0-2.55.1a14.1,14.1,0,0,0-2.14.35l-0.08,2.37q-0.08,2.24-.17,4.5t-0.12,4.5a1.48,1.48,0,0,1,0,.25,1.49,1.49,0,0,0,0,.25v0.93a5.18,5.18,0,0,0,.08.93,16.57,16.57,0,0,0,2.2.12h0.73a6.53,6.53,0,0,0,.73,0q1.58,0,2.78-.1t2.28-.19q0.46-.08.85-0.12t0.81-.12a1.29,1.29,0,0,0,.46-0.17,1,1,0,0,1,.37-0.12h0.12a2.14,2.14,0,0,1,.87-0.17,2.36,2.36,0,0,1,1.39.46A2.63,2.63,0,0,1,267.37,162.57Z"/><path class="cls-6" d="M302.2,169a2.17,2.17,0,0,1-1.45.46,2.9,2.9,0,0,1-1.49-.42,2.47,2.47,0,0,1-.46-0.37,1.1,1.1,0,0,1-.29-0.71l-0.17-1.14q-0.08-.56-0.17-1.14l0-.25q-0.25-1.78-.5-3.61t-0.33-3.69q-0.08-1.08-.08-2.12t0-2.07q0-1.33-.08-2.7T297,148.5q-0.08-1.37-.23-2.76T296.43,143v0q-0.08-1-.23-2.14T296,138.62l-0.25-2.86-0.37,2.82q-0.21,1.45-.48,2.88t-0.56,2.8q-0.17.75-.33,1.56l-0.33,1.64v0.21q-1,5.15-2.14,10.33a58.74,58.74,0,0,1-3.26,10.21,1.72,1.72,0,0,1-.83.83,2.78,2.78,0,0,1-1.33.33,1.71,1.71,0,0,1-1.62-.79,15,15,0,0,1-1.24-2.88,18.5,18.5,0,0,1-.66-3q-0.21-1.51-.27-3.05t-0.1-3.07v-0.08q0-.87,0-1.78t-0.08-1.78q-0.12-1.83-.12-3.69t0-3.86q0-2,.06-4t-0.1-3.94q-0.12-2-.44-3.86a23.44,23.44,0,0,0-.89-3.65,1.07,1.07,0,0,1,.25-1.2,2.41,2.41,0,0,1,1.78-.66,1.8,1.8,0,0,1,1.91,1.12,27.11,27.11,0,0,1,1.37,7.57q0.17,4,.08,8v0q0,1.58,0,3t0.06,2.84q0.12,4.28.37,8.51v0.08l0.17,1.58,0.46-1.54q0.83-3.11,1.41-6.18t1.16-6.1l0,0,0.33-1.83q0.37-2.12.81-4.54t0.81-5q0.12-.83.27-1.74a10.43,10.43,0,0,1,.46-1.81,9,9,0,0,1,.85-1.76,7.44,7.44,0,0,1,1.37-1.62,1.79,1.79,0,0,1,1.33-.5,2.51,2.51,0,0,1,1.22.33,2.27,2.27,0,0,1,.89.83,13.6,13.6,0,0,1,1.43,4.15q0.35,2.12.56,4.23,0.08,1.16.21,2.3t0.25,2.22q0.16,1.33.31,2.7t0.23,2.74q0.12,1.33.15,2.66T301.2,153q0,1.25.06,2.53t0.1,2.57q0.12,1.91.37,3.84t0.54,3.8q0.08,0.54.15,1.1c0,0.37.09,0.74,0.15,1.1A1.28,1.28,0,0,1,302.2,169Zm-10.06-45.8a1.29,1.29,0,0,0-.71-0.25,2.72,2.72,0,0,0-.89.12l-1,.31a6.82,6.82,0,0,0-1.76.79,1.23,1.23,0,0,0-.35,1.54,1.9,1.9,0,0,0,1,1.29,2.76,2.76,0,0,0,1.66-.12,6,6,0,0,0,1.08-.46,5.47,5.47,0,0,0,1-.64,1.92,1.92,0,0,0,.58-0.81,1.54,1.54,0,0,0,0-1A1.45,1.45,0,0,0,292.13,123.21Z"/><path class="cls-6" d="M364.72,168.38a1.28,1.28,0,0,1-.37,1,2.24,2.24,0,0,1-1.49.46,2.89,2.89,0,0,1-1.49-.42,2,2,0,0,1-.44-0.37,1.38,1.38,0,0,1-.31-0.71l-0.17-1.14q-0.08-.56-0.17-1.14l0-.25-0.5-3.65q-0.25-1.83-.33-3.69,0-1.08-.06-2.12t-0.06-2.07q0-1.33,0-2.7t-0.12-2.74q-0.08-1.41-.25-2.8t-0.29-2.72l0,0q-0.08-1-.21-2.12L358.08,139l-0.25-2.86-0.37,2.82q-0.21,1.45-.48,2.88t-0.56,2.84q-0.17.75-.31,1.56t-0.31,1.64l0,0.17q-1,5.19-2.14,10.4a58.59,58.59,0,0,1-3.26,10.23,1.71,1.71,0,0,1-.85.83,2.9,2.9,0,0,1-1.35.33,1.67,1.67,0,0,1-1.58-.79,15,15,0,0,1-1.24-2.88,18.43,18.43,0,0,1-.66-3q-0.21-1.54-.29-3.07T344.26,157v0q0-1.87-.12-3.61t-0.1-3.69q0-1.87.06-3.86t0-4q0-2-.12-4t-0.41-3.86a19.68,19.68,0,0,0-.91-3.65A1,1,0,0,1,343,129a1.77,1.77,0,0,1,.77-0.5,3.08,3.08,0,0,1,1-.17,2.35,2.35,0,0,1,1.2.29,1.41,1.41,0,0,1,.66.83,23.36,23.36,0,0,1,1,3.69,35.88,35.88,0,0,1,.46,3.9q0.12,2,.12,4t0,4.07v0q0,1.54-.06,3t0.06,2.86q0.08,2.16.17,4.27t0.21,4.27v0l0.21,1.62,0.42-1.58q0.83-3.07,1.43-6.16t1.18-6.12v0l0.37-1.83,0.81-4.57q0.44-2.45.81-5,0.12-.83.27-1.74a10.49,10.49,0,0,1,.46-1.8,9,9,0,0,1,.85-1.76,7.45,7.45,0,0,1,1.37-1.62,1.88,1.88,0,0,1,1.33-.5,2.59,2.59,0,0,1,1.27.33,2,2,0,0,1,.85.83,13.5,13.5,0,0,1,1.45,4.13q0.37,2.14.54,4.25,0.12,1.16.25,2.3t0.25,2.22q0.16,1.33.31,2.7t0.23,2.74q0.08,1.33.12,2.68t0.08,2.68q0,1.25,0,2.53t0.12,2.57q0.12,2,.37,3.86l0.5,3.82,0.17,1.08Q364.64,167.8,364.72,168.38Z"/><path class="cls-6" d="M423.74,127.38a5.57,5.57,0,0,1,.91,1.93,15.54,15.54,0,0,1,.48,2.57,22.57,22.57,0,0,1,.1,2.95q0,1.56-.21,3.05a8.34,8.34,0,0,1-1.45,3.44,18.92,18.92,0,0,1-3.05,3.51,18.48,18.48,0,0,1-3.92,2.74,8.68,8.68,0,0,1-4,1.1l-0.41,0-0.42-.06,0,2q0,1.66,0,3.34t0.12,3.3q0,0.83,0,1.68t0.06,1.68q0,1,0,1.56t0.06,1.06q0,0.46,0,1t-0.1,1.25a1.85,1.85,0,0,1-.35.91,1,1,0,0,1-.84.33,3.45,3.45,0,0,1-.66-0.08c-0.27-.05-0.55-0.12-0.82-0.21a3.42,3.42,0,0,1-.76-0.33,1.54,1.54,0,0,1-.51-0.46,1.46,1.46,0,0,1-.29-1q0-.54.12-1.12,0-.79.08-1.12a3,3,0,0,0,0-.58q0-.25-0.06-0.6t-0.08-1.18q0-.37-0.06-0.73t0-.68q-0.12-2.32-.15-4.57t0-4.36V149q0-2.74,0-5.52t-0.1-5.56q0-.83-0.08-1.62t-0.08-1.62l-0.12-2.24a1.33,1.33,0,0,1,0-.33v-0.37q0-.46,0-1.2T407.06,129q0-.79,0-1.45a7.52,7.52,0,0,1,0-1,1.4,1.4,0,0,1,1.4-1.54h1.23q1.07,0,2.6,0t3.36,0.17q1.82,0.12,3.47.39a21.78,21.78,0,0,1,2.91.66A3.3,3.3,0,0,1,423.74,127.38ZM421.29,137a14.21,14.21,0,0,0,.27-1.62,11.56,11.56,0,0,0,.06-1.83,8.84,8.84,0,0,0-.25-1.74,3.71,3.71,0,0,0-.62-1.37,2.72,2.72,0,0,0-1.43-.48q-1.18-.19-2.64-0.29t-2.84-.15l-2.1,0h-0.58q0.08,0.58.15,1.31l0.12,1.47q0.06,0.75.1,1.49c0,0.5,0,.93,0,1.29s0,0.66,0,1,0,0.65,0,1q0.08,1.58.1,3.32t0.06,3.82a2.42,2.42,0,0,0,.39.12,1.8,1.8,0,0,0,.39,0,4.35,4.35,0,0,0,1.76-.42,10.15,10.15,0,0,0,1.85-1.08A19.37,19.37,0,0,0,418,141.3a21.49,21.49,0,0,0,1.58-1.62,12.53,12.53,0,0,0,1.16-1.54A4.76,4.76,0,0,0,421.29,137Z"/><path class="cls-6" d="M468.58,142.85q0.12,1.54.27,3.57t0.12,4.27q0,2.24-.27,4.52a19.66,19.66,0,0,1-.93,4.27,12.57,12.57,0,0,1-1.89,3.57,7.42,7.42,0,0,1-3.07,2.37,13.91,13.91,0,0,1-3.47,1,20.55,20.55,0,0,1-3.92.21,20,20,0,0,1-3.88-.54,12.7,12.7,0,0,1-3.34-1.29,6.5,6.5,0,0,1-2.7-2.8,14,14,0,0,1-1.29-3.92,25.88,25.88,0,0,1-.39-4.25q0-2.14,0-3.8,0-2.86.21-5.64t0.29-5.64q0.08-1.74.27-3.55a23.48,23.48,0,0,1,.64-3.55,7.38,7.38,0,0,1,1.29-2.74,8.45,8.45,0,0,1,2-1.85,9.58,9.58,0,0,1,2.22-1.12,15.18,15.18,0,0,1,2.14-.58,11.31,11.31,0,0,1,1.7-.21l0.87,0a17.69,17.69,0,0,1,3.55.44,12,12,0,0,1,3.17,1.2,10.57,10.57,0,0,1,2.59,2,9.7,9.7,0,0,1,1.85,2.93,23.5,23.5,0,0,1,1.43,5.52Q468.37,140.11,468.58,142.85Zm-6.06,17.55a14.52,14.52,0,0,0,1.68-4.23,27.5,27.5,0,0,0,.64-4.67,39.26,39.26,0,0,0,0-4.77q-0.17-2.39-.37-4.54-0.21-1.83-.46-3.63a32.35,32.35,0,0,0-.71-3.59,7.09,7.09,0,0,0-6.39-5.85,1.38,1.38,0,0,1-.68.06,11.45,11.45,0,0,0-1.45.06,8.23,8.23,0,0,0-1.87.44,5.7,5.7,0,0,0-1.91,1.14,7,7,0,0,0-1.58,2.18,10.41,10.41,0,0,0-.89,3.59q-0.33,3.65-.48,7.26T448,151.11q0,1.91.15,3.88a15.6,15.6,0,0,0,.68,3.84,4.09,4.09,0,0,0,1.87,2.68,8.4,8.4,0,0,0,3.36.89l2.28,0.17a12.53,12.53,0,0,0,2.41-.06,7.57,7.57,0,0,0,2.18-.6A3.63,3.63,0,0,0,462.52,160.41Z"/><path class="cls-6" d="M507,160.4a1.86,1.86,0,0,1,.58,1.33,3.41,3.41,0,0,1-.12.85,3,3,0,0,1-.39.89,3.24,3.24,0,0,1-.64.73,1.52,1.52,0,0,1-.87.35l-1.08,0q-0.87,0-2.1.06l-2.68,0-2.82,0-2.53,0h-1.83q-2.2,0-4.11-.12t-3.74-.37a1.9,1.9,0,0,1-1.14-.62,1.48,1.48,0,0,1-.35-1.2,2.59,2.59,0,0,1,.75-1.54,1.86,1.86,0,0,1,1.74-.54l0.33,0.06,0.33,0.06q0.12-1.49.33-3t0.42-2.93q0.21-1.33.37-2.68t0.29-2.68l0.17-1.93,0.17-1.93q0.08-1.45.21-3t0.33-3a25.86,25.86,0,0,1,2.57-9.07,18.34,18.34,0,0,1,5.44-6.29,2,2,0,0,1,.52-0.25q0.35-.12.75-0.23l0.75-.19a2.55,2.55,0,0,1,.52-0.08,1.57,1.57,0,0,1,1.54,1,8.63,8.63,0,0,1,.85,2.95q0.14,1.49.23,3v0.5a3.75,3.75,0,0,0,0,.54v0.66q0.12,2.32.27,4.65t0.39,4.65q0.29,2.53.44,5t0.27,5l0.25,4.46q0.12,2.22.33,4.46l1.87-.17A1.68,1.68,0,0,1,507,160.4Zm-16.68.37q2,0.08,4.32,0t5.19-.29q-0.21-2-.31-4.07t-0.19-4q-0.08-2.12-.21-4.25t-0.33-4.3q-0.25-2.24-.48-4.81t-0.39-5.23v-2q0-.87,0-1.83a15.3,15.3,0,0,0-.15-1.83,12.27,12.27,0,0,0-2.57,3.07,17.47,17.47,0,0,0-1.6,3.63,25.13,25.13,0,0,0-.89,4q-0.29,2.05-.46,4.13t-0.41,4.23q-0.25,2.12-.54,4.23-0.29,2.28-.56,4.61T490.27,160.78Z"/><path class="cls-6" d="M548.79,165.1a1.28,1.28,0,0,1-.37,1,2.24,2.24,0,0,1-1.49.46,2.89,2.89,0,0,1-1.49-.42,2,2,0,0,1-.44-0.37,1.38,1.38,0,0,1-.31-0.71L544.52,164q-0.08-.56-0.17-1.14l0-.25-0.5-3.65q-0.25-1.83-.33-3.69,0-1.08-.06-2.12T543.36,151q0-1.33,0-2.7t-0.12-2.74q-0.08-1.41-.25-2.8t-0.29-2.72l0,0q-0.08-1-.21-2.12l-0.25-2.24-0.25-2.86-0.37,2.82q-0.21,1.45-.48,2.88t-0.56,2.84q-0.17.75-.31,1.56t-0.31,1.64l0,0.17q-1,5.19-2.14,10.4a58.59,58.59,0,0,1-3.26,10.23,1.71,1.71,0,0,1-.85.83,2.9,2.9,0,0,1-1.35.33,1.67,1.67,0,0,1-1.58-.79,15,15,0,0,1-1.24-2.88,18.43,18.43,0,0,1-.66-3q-0.21-1.54-.29-3.07t-0.12-3.07v0q0-1.87-.12-3.61t-0.1-3.69q0-1.87.06-3.86t0-4q0-2-.12-4t-0.41-3.86a19.68,19.68,0,0,0-.91-3.65,1,1,0,0,1,.29-1.25,1.77,1.77,0,0,1,.77-0.5,3.08,3.08,0,0,1,1-.17,2.35,2.35,0,0,1,1.2.29,1.41,1.41,0,0,1,.66.83,23.36,23.36,0,0,1,1,3.69,35.88,35.88,0,0,1,.46,3.9q0.12,2,.12,4t0,4.07v0q0,1.54-.06,3t0.06,2.86q0.08,2.16.17,4.27t0.21,4.27v0l0.21,1.62,0.42-1.58q0.83-3.07,1.43-6.16t1.18-6.12v0l0.37-1.83,0.81-4.57q0.44-2.45.81-5,0.12-.83.27-1.74a10.49,10.49,0,0,1,.46-1.8,9,9,0,0,1,.85-1.76,7.45,7.45,0,0,1,1.37-1.62,1.88,1.88,0,0,1,1.33-.5,2.59,2.59,0,0,1,1.27.33,2,2,0,0,1,.85.83,13.5,13.5,0,0,1,1.45,4.13q0.37,2.14.54,4.25,0.12,1.16.25,2.3t0.25,2.22q0.16,1.33.31,2.7t0.23,2.74q0.08,1.33.12,2.68t0.08,2.68q0,1.25,0,2.53t0.12,2.57q0.12,2,.37,3.86l0.5,3.82,0.17,1.08Q548.71,164.52,548.79,165.1Z"/><path class="cls-6" d="M592.07,130.27a1.88,1.88,0,0,1-1.16,2.2,4.59,4.59,0,0,1-1.74.29h-0.52a63.88,63.88,0,0,0-1.1-.08,11.13,11.13,0,0,0-2.24.15,9.32,9.32,0,0,1-2.24.1,12.76,12.76,0,0,1,.31,1.58q0.1,0.79.19,1.54a55.36,55.36,0,0,1,.31,6.23q0,3.11-.1,5.89,0,0.83,0,2.05t0.14,2.72q0.12,1.78.31,3.82t0.27,4q0.08,2,0,3.86a13.15,13.15,0,0,1-.48,3.26,3.05,3.05,0,0,1-.58,1.18,1.4,1.4,0,0,1-1.12.44H581.2a1.07,1.07,0,0,1-.91-0.46,3.72,3.72,0,0,1-.19-1q-0.1-.87-0.19-2.2T579.75,163q-0.08-1.6-.14-3.2t-0.1-3q0-1.43,0-2.43a19.11,19.11,0,0,0-.12-2.3,9.73,9.73,0,0,1-.08-1.72q0.12-2.95.19-5.62t-0.06-5.29l0-.17q0-1.08-.12-2.18a19.16,19.16,0,0,0-.29-2.18l0-.37c-0.06-.22-0.1-0.44-0.15-0.64a2,2,0,0,0-.23-0.6,1.12,1.12,0,0,0-.21-0.29v0a0.53,0.53,0,0,1-.33-0.21l-1.16-.06-1.33,0a19.31,19.31,0,0,0-2.7.17,9.5,9.5,0,0,0-2.12.54,1.87,1.87,0,0,1-1.72-.17,2.29,2.29,0,0,1-1-1.58,2.85,2.85,0,0,1,.19-1.54,2.08,2.08,0,0,1,1.27-1.16,17.15,17.15,0,0,1,5.69-.79q0.87,0,1.74,0a11.65,11.65,0,0,1,1.7,0l1,0,1,0.06q1.74,0,3.36-.06a22.94,22.94,0,0,1,2.9,0h0.5l0.81,0.06,0.81,0H589l0.35,0,0.23,0,0.12,0a0.46,0.46,0,0,1,.29.17,2.09,2.09,0,0,1,1.39.71A3,3,0,0,1,592.07,130.27Z"/><path class="cls-6" d="M632.27,165.49a1.83,1.83,0,0,1-.66,2.2,5.61,5.61,0,0,1-1.74,1,11.21,11.21,0,0,1-2.12.52,17.6,17.6,0,0,1-2.28.19l-2.16,0a5.1,5.1,0,0,1-.64,0h-1.08a3,3,0,0,0-.48,0l-0.87,0-1,0q-0.79,0-1.68-.08a6.87,6.87,0,0,1-1.7-.37,4.32,4.32,0,0,1-1.45-.87,3,3,0,0,1-.89-1.54,13.76,13.76,0,0,1-.5-4.25q0.08-2.18.29-4.34,0.08-1,.17-2t0.08-1.93q0-1.12,0-2.24t0-2.24q0.08-4.32.08-8.69t-0.33-8.78a3,3,0,0,0-.06-0.46,5.78,5.78,0,0,1-.08-0.81,5.71,5.71,0,0,1,0-1,2.67,2.67,0,0,1,.31-1,1.61,1.61,0,0,1,1.1-.68,8.63,8.63,0,0,1,1.74-.21q0.93,0,1.83,0t1.39,0.06l1.78,0,2.72-.06,2.78,0q1.35,0,2,0a2.18,2.18,0,0,1,1.68.83,2.44,2.44,0,0,1,.52,1.62,2.56,2.56,0,0,1-.58,1.47,1.8,1.8,0,0,1-1.66.6,19.7,19.7,0,0,0-2.7,0l-2.7.19-2.1.17q-1.06.08-2.14,0.08l-0.64,0L618,133q0.29,3.69.29,7.14t-0.08,6.27a15.41,15.41,0,0,1,2.18-.27q1.14-.06,2.51-0.06l1.56,0,1.56,0,1.29,0.06,1.29,0a2,2,0,0,1,1.64.73,2.56,2.56,0,0,1,.56,1.6,2.48,2.48,0,0,1-.54,1.54,1.91,1.91,0,0,1-1.62.71l-1.39,0-1.39-.06-1.54-.06-1.54,0q-1.41,0-2.55.1a14.1,14.1,0,0,0-2.14.35L618,153.41q-0.08,2.24-.17,4.5t-0.12,4.5a1.48,1.48,0,0,1,0,.25,1.49,1.49,0,0,0,0,.25v0.93a5.18,5.18,0,0,0,.08.93,16.57,16.57,0,0,0,2.2.12h0.73a6.53,6.53,0,0,0,.73,0q1.58,0,2.78-.1t2.28-.19q0.46-.08.85-0.12t0.81-.12a1.29,1.29,0,0,0,.46-0.17,1,1,0,0,1,.37-0.12h0.12a2.14,2.14,0,0,1,.87-0.17,2.36,2.36,0,0,1,1.39.46A2.63,2.63,0,0,1,632.27,165.49Z"/><path class="cls-6" d="M670.58,167.07a1.53,1.53,0,0,1-.15,1.54,2.27,2.27,0,0,1-1.22.83,2.45,2.45,0,0,1-1.54-.08,1.87,1.87,0,0,1-1.12-1.2,45.36,45.36,0,0,1-1.41-4.9q-0.58-2.53-1.1-5.1T663,153q-0.54-2.53-1.24-4.94-0.71-2.24-1.41-4.44t-1.41-4.44q-1.33,6.89-2.72,14a130.12,130.12,0,0,0-2,14.15,1.84,1.84,0,0,1-.76,1.43,2.49,2.49,0,0,1-1.46.48,2.22,2.22,0,0,1-1.4-.48,1.52,1.52,0,0,1-.53-1.43q0.37-4.65,1.15-9.34t1.68-9.4q0.9-4.71,1.84-9.4t1.55-9.3a2.17,2.17,0,0,1,.68-1.27,2.46,2.46,0,0,1,1.25-.64,2,2,0,0,1,1.31.21,1.85,1.85,0,0,1,.87,1.2q1.2,4.77,2.78,9.38t2.9,9.38q0.62,2.24,1.12,4.65l1,4.81q0.5,2.41,1.06,4.77T670.58,167.07Z"/><path class="cls-6" d="M706.77,166.52a1.83,1.83,0,0,1-.66,2.2,5.61,5.61,0,0,1-1.74,1,11.21,11.21,0,0,1-2.12.52,17.6,17.6,0,0,1-2.28.19l-2.16,0a5.1,5.1,0,0,1-.64,0h-1.08a3,3,0,0,0-.48,0l-0.87,0-1,0q-0.79,0-1.68-.08a6.87,6.87,0,0,1-1.7-.37,4.32,4.32,0,0,1-1.45-.87,3,3,0,0,1-.89-1.54,13.76,13.76,0,0,1-.5-4.25q0.08-2.18.29-4.34,0.08-1,.17-2t0.08-1.93q0-1.12,0-2.24t0-2.24q0.08-4.32.08-8.69t-0.33-8.78a3,3,0,0,0-.06-0.46,5.78,5.78,0,0,1-.08-0.81,5.71,5.71,0,0,1,0-1,2.67,2.67,0,0,1,.31-1,1.61,1.61,0,0,1,1.1-.68,8.63,8.63,0,0,1,1.74-.21q0.93,0,1.83,0t1.39,0.06l1.78,0,2.72-.06,2.78,0q1.35,0,2,0a2.18,2.18,0,0,1,1.68.83,2.44,2.44,0,0,1,.52,1.62,2.56,2.56,0,0,1-.58,1.47,1.8,1.8,0,0,1-1.66.6,19.7,19.7,0,0,0-2.7,0l-2.7.19-2.1.17q-1.06.08-2.14,0.08l-0.64,0-0.64,0q0.29,3.69.29,7.14t-0.08,6.27a15.41,15.41,0,0,1,2.18-.27q1.14-.06,2.51-0.06l1.56,0,1.56,0,1.29,0.06,1.29,0a2,2,0,0,1,1.64.73,2.56,2.56,0,0,1,.56,1.6,2.48,2.48,0,0,1-.54,1.54,1.91,1.91,0,0,1-1.62.71l-1.39,0-1.39-.06-1.54-.06-1.54,0q-1.41,0-2.55.1a14.1,14.1,0,0,0-2.14.35l-0.08,2.37q-0.08,2.24-.17,4.5t-0.12,4.5a1.48,1.48,0,0,1,0,.25,1.49,1.49,0,0,0,0,.25v0.93a5.18,5.18,0,0,0,.08.93,16.57,16.57,0,0,0,2.2.12h0.73a6.53,6.53,0,0,0,.73,0q1.58,0,2.78-.1t2.28-.19q0.46-.08.85-0.12t0.81-.12a1.29,1.29,0,0,0,.46-0.17,1,1,0,0,1,.37-0.12h0.12a2.14,2.14,0,0,1,.87-0.17,2.36,2.36,0,0,1,1.39.46A2.63,2.63,0,0,1,706.77,166.52Z"/><path class="cls-6" d="M755.81,171.57a2.17,2.17,0,0,1-1.45.46,2.9,2.9,0,0,1-1.49-.42,2.47,2.47,0,0,1-.46-0.37,1.1,1.1,0,0,1-.29-0.71l-0.17-1.14q-0.08-.56-0.17-1.14l0-.25q-0.25-1.78-.5-3.61t-0.33-3.69q-0.08-1.08-.08-2.12t0-2.07q0-1.33-.08-2.7t-0.12-2.74q-0.08-1.37-.23-2.76T750,145.59v0q-0.08-1-.23-2.14t-0.23-2.22l-0.25-2.86L749,141.15q-0.21,1.45-.48,2.88t-0.56,2.8q-0.17.75-.33,1.56L747.26,150v0.21q-1,5.15-2.14,10.33a58.74,58.74,0,0,1-3.26,10.21,1.72,1.72,0,0,1-.83.83,2.78,2.78,0,0,1-1.33.33,1.71,1.71,0,0,1-1.62-.79,15,15,0,0,1-1.24-2.88,18.5,18.5,0,0,1-.66-3q-0.21-1.51-.27-3.05t-0.1-3.07v-0.08q0-.87,0-1.78t-0.08-1.78q-0.12-1.83-.12-3.69t0-3.86q0-2,.06-4t-0.1-3.94q-0.12-2-.44-3.86a23.44,23.44,0,0,0-.89-3.65,1.07,1.07,0,0,1,.25-1.2,2.41,2.41,0,0,1,1.78-.66,1.8,1.8,0,0,1,1.91,1.12,27.11,27.11,0,0,1,1.37,7.57q0.17,4,.08,8v0q0,1.58,0,3t0.06,2.84q0.12,4.28.37,8.51v0.08l0.17,1.58,0.46-1.54q0.83-3.11,1.41-6.18t1.16-6.1l0,0,0.33-1.83q0.37-2.12.81-4.54t0.81-5q0.12-.83.27-1.74a10.43,10.43,0,0,1,.46-1.81,9,9,0,0,1,.85-1.76,7.44,7.44,0,0,1,1.37-1.62,1.79,1.79,0,0,1,1.33-.5,2.51,2.51,0,0,1,1.22.33,2.27,2.27,0,0,1,.89.83,13.6,13.6,0,0,1,1.43,4.15q0.35,2.12.56,4.23,0.08,1.16.21,2.3t0.25,2.22q0.16,1.33.31,2.7t0.23,2.74q0.12,1.33.15,2.66t0.06,2.66q0,1.25.06,2.53t0.1,2.57q0.12,1.91.37,3.84t0.54,3.8q0.08,0.54.15,1.1c0,0.37.09,0.74,0.15,1.1A1.28,1.28,0,0,1,755.81,171.57Zm-10.06-45.8a1.29,1.29,0,0,0-.71-0.25,2.72,2.72,0,0,0-.89.12l-1,.31a6.82,6.82,0,0,0-1.76.79,1.23,1.23,0,0,0-.35,1.54,1.9,1.9,0,0,0,1,1.29,2.76,2.76,0,0,0,1.66-.12,6,6,0,0,0,1.08-.46,5.47,5.47,0,0,0,1-.64,1.92,1.92,0,0,0,.58-0.81,1.54,1.54,0,0,0,0-1A1.45,1.45,0,0,0,745.74,125.77Z"/></svg>